<svg width="126" height="64" viewBox="0 0 126 64" fill="none" xmlns="http://www.w3.org/2000/svg">
<path d="M63.001 63.2511H125.502V0.749878H63.001V63.2511Z" fill="white"/>
<path d="M76.301 21.256L77.1704 21.7519C77.5496 21.9649 77.8822 22.1896 77.8822 22.6272C77.8822 22.8693 77.8063 23.0647 77.6488 23.2106C77.4446 23.4061 77.1237 23.5024 76.7094 23.4878C76.2718 23.4819 75.9655 23.4586 75.6183 23.1727L75.5512 23.1144V23.7329L75.5804 23.7445C75.9363 23.8787 76.1931 23.8816 76.5431 23.8904H76.6598H76.7473C77.1674 23.8904 77.8501 23.8203 78.2527 23.4119C78.4715 23.1902 78.5736 22.8984 78.5649 22.5425C78.5357 21.7928 78.136 21.5682 77.6313 21.2881L77.4563 21.1919L76.6978 20.7543C76.3856 20.5792 76.1872 20.4041 76.1551 20.092C76.1405 19.9082 76.2047 19.7361 76.3448 19.5961C76.5402 19.3919 76.8699 19.3043 77.1674 19.2956C77.5292 19.3073 77.7888 19.3626 78.0485 19.6106L78.1185 19.6777V19.0651L78.0893 19.0534C77.7801 18.928 77.5584 18.9221 77.2491 18.9134H77.1149C76.619 18.8959 76.1522 19.0593 75.8605 19.3452C75.6446 19.5581 75.5279 19.8294 75.5308 20.1328C75.5366 20.6142 75.7642 20.9497 76.2981 21.2648" fill="black"/>
<path d="M78.8013 19.1905C78.8509 19.2488 78.8655 19.2896 78.8888 19.3596L80.6392 24.0041L81.8703 20.6083L83.1248 23.9778L84.7527 19.4414C84.7702 19.3888 84.7906 19.3539 84.8168 19.3072C84.8985 19.173 84.9335 19.1146 85.0065 19.0329L85.0648 18.9658H84.1984L84.2392 19.03C84.2684 19.0767 84.2859 19.1176 84.2888 19.1817C84.2917 19.2459 84.2742 19.2984 84.2305 19.3859L83.1802 22.4987L82.0133 19.348C81.9841 19.2604 81.9783 19.2168 81.9958 19.1438C82.0074 19.0971 82.0191 19.0766 82.0424 19.0329L82.0774 18.9746H81.0185L81.0914 19.0445C81.141 19.0941 81.1789 19.1321 81.2227 19.1905C81.2927 19.278 81.3219 19.3072 81.3452 19.3655L81.5786 19.949L80.6217 22.4958L79.4927 19.2867C79.4781 19.2488 79.481 19.2196 79.4956 19.1642C79.5102 19.1088 79.516 19.0913 79.5481 19.0417L79.586 18.9775H78.4833L78.6175 19.0534C78.6904 19.0971 78.7254 19.1292 78.7779 19.1992M85.6133 19.2458C85.6403 19.3216 85.6522 19.4019 85.6483 19.4822V23.3623C85.6483 23.4556 85.6483 23.514 85.6133 23.5957C85.5958 23.654 85.5783 23.689 85.5433 23.7415L85.4995 23.8057H86.3951L86.3572 23.7415C86.2989 23.654 86.2813 23.6248 86.2697 23.5781C86.2522 23.4206 86.2522 23.2105 86.2522 22.9946V19.4939C86.2522 19.4268 86.2522 19.3859 86.293 19.2401L86.366 19.065L86.3951 19.0067H85.4616L85.5053 19.0708C85.5478 19.1335 85.5803 19.2024 85.6016 19.275M87.2703 19.208C87.3053 19.2664 87.317 19.3188 87.317 19.3918V23.3769C87.317 23.4702 87.317 23.5314 87.2937 23.6248C87.282 23.6831 87.2645 23.7182 87.2178 23.7824L87.1741 23.8466H87.9151L87.88 23.7356C87.8625 23.686 87.8509 23.6482 87.8421 23.5898C87.7984 23.3856 87.7984 23.3856 87.7984 23.2485V19.7827L91.6551 24.042L91.6493 19.4706C91.6493 19.3772 91.6493 19.3246 91.6668 19.2225C91.6784 19.1408 91.6901 19.0942 91.7164 19.0184L91.7339 18.96H91.0862L91.1066 19.0388L91.1446 19.1963C91.1796 19.3771 91.1796 19.5085 91.1737 19.6719V22.7146L87.8946 18.9716H87.0194L87.1507 19.0475C87.2091 19.0825 87.2382 19.1175 87.2674 19.1788M93.1313 19.3742H93.5543C94.094 19.3742 94.4295 19.666 94.4295 20.162C94.4382 20.4041 94.3711 20.6083 94.2253 20.7542C94.0619 20.9234 93.8023 21.0459 93.4668 21.0459H93.0933L93.1313 19.3742ZM93.5309 21.3989C94.3303 21.4222 94.7446 21.7665 94.7621 22.42C94.7796 23.0734 94.1786 23.4206 93.5805 23.4556C93.4378 23.4691 93.2939 23.4532 93.1575 23.4089V21.431C93.2946 21.4018 93.3851 21.4018 93.5309 21.4018M92.4865 19.2138C92.5272 19.2953 92.5482 19.3852 92.5478 19.4763V23.4031C92.5478 23.4906 92.5361 23.5489 92.507 23.6365L92.4953 23.6569C92.479 23.6951 92.4584 23.7313 92.434 23.7648L92.3844 23.832H93.7381C94.73 23.832 95.3485 23.2952 95.3572 22.4316C95.3572 21.8044 95.0713 21.3901 94.5053 21.2005L94.3945 21.1596L94.4995 21.0955C94.8934 20.8679 95.048 20.5996 95.0363 20.162C95.0013 19.4997 94.4878 18.9804 93.8694 18.9804H92.3523L92.3961 19.0445C92.4428 19.1087 92.4661 19.1497 92.4953 19.2197M96.1361 19.2663C96.1449 19.3247 96.1449 19.3626 96.142 19.4122L96.1391 19.4706V22.2129C96.1373 22.4221 96.178 22.6295 96.2587 22.8225C96.3394 23.0156 96.4585 23.1903 96.6087 23.336C96.9997 23.7104 97.5202 23.9195 98.0616 23.9195H98.0908C99.1206 23.8991 99.8995 23.1901 99.8995 22.2682V19.4092C99.8995 19.3567 99.8966 19.313 99.9054 19.2517C99.915 19.1831 99.9316 19.1157 99.9549 19.0504L99.9724 18.9921H99.1906L99.2139 19.0504C99.2431 19.1234 99.2577 19.1671 99.2723 19.2547C99.2839 19.3329 99.2888 19.4119 99.2869 19.4909V22.2245C99.2911 22.3814 99.2628 22.5374 99.2038 22.6829C99.1448 22.8283 99.0564 22.96 98.944 23.0696C98.8317 23.1792 98.6979 23.2644 98.5511 23.3198C98.4042 23.3752 98.2475 23.3996 98.0908 23.3915C97.9116 23.3974 97.7331 23.3674 97.5658 23.3033C97.3984 23.2392 97.2456 23.1422 97.1164 23.0181C96.9993 22.9072 96.9059 22.7738 96.8418 22.6259C96.7776 22.478 96.744 22.3186 96.743 22.1574V19.3859C96.743 19.3275 96.74 19.2809 96.7546 19.2167C96.7692 19.1526 96.778 19.1001 96.813 19.03L96.8421 18.9716H96.069L96.0895 19.03C96.1186 19.1176 96.1332 19.17 96.1478 19.2721M101.387 20.9934V19.4092C101.533 19.3487 101.691 19.3228 101.848 19.3335C102.583 19.3626 102.709 19.7273 102.732 20.1211C102.77 20.6229 102.403 20.9526 101.758 21.0021C101.629 21.008 101.484 21.0051 101.387 20.9934ZM100.746 19.243C100.774 19.3919 100.787 19.5435 100.783 19.6952V23.1172L100.763 23.5985C100.76 23.651 100.74 23.6861 100.713 23.7386L100.661 23.8436H101.487L101.446 23.7269C101.425 23.6686 101.408 23.6278 101.399 23.5578C101.39 23.4877 101.379 23.4293 101.382 23.3593V21.1947C101.418 21.2232 101.45 21.2577 101.475 21.2967L101.516 21.3552L103.441 23.864H104.34L104.238 23.7882L103.998 23.5985C103.858 23.4818 103.75 23.3068 103.61 23.1522L102.461 21.6936C102.358 21.5613 102.245 21.4374 102.123 21.323C102.408 21.3339 102.687 21.2371 102.904 21.0517C103.038 20.9398 103.146 20.8008 103.221 20.6438C103.297 20.4868 103.338 20.3156 103.342 20.1415C103.348 19.9989 103.325 19.8566 103.275 19.7231C103.224 19.5897 103.147 19.468 103.047 19.3655C102.823 19.1321 102.487 19.0008 102.131 19.0008H100.626L100.684 19.103C100.713 19.1525 100.734 19.1904 100.743 19.2488M104.64 19.2109C104.675 19.2692 104.687 19.3218 104.687 19.3947V23.3798C104.687 23.4731 104.687 23.5344 104.664 23.6277C104.652 23.6861 104.634 23.7211 104.588 23.7852L104.541 23.8494H105.282L105.265 23.797L105.244 23.7328C105.23 23.6861 105.215 23.6453 105.206 23.5928C105.162 23.3885 105.162 23.3885 105.162 23.2514V19.7827L109.019 24.042L109.013 19.4706C109.013 19.3772 109.013 19.3246 109.031 19.2225C109.042 19.1467 109.054 19.0942 109.08 19.0154L109.098 18.957H108.45L108.468 19.0212L108.509 19.1963C108.544 19.3771 108.538 19.5085 108.538 19.6719V22.7117L105.232 18.9658H104.357L104.489 19.0417C104.547 19.0767 104.576 19.1117 104.605 19.1729M109.871 19.1613C109.895 19.2216 109.907 19.286 109.906 19.3509V23.4118C109.911 23.4677 109.906 23.524 109.891 23.5781C109.874 23.6365 109.853 23.689 109.816 23.7445L109.769 23.8086H112.628L112.838 23.1318L112.739 23.1959C112.677 23.2418 112.606 23.2754 112.532 23.2951C112.333 23.3593 112.24 23.371 112.015 23.371H110.557V21.3202H111.794C111.869 21.3202 111.925 21.3202 111.998 21.3318C112.1 21.3552 112.164 21.3756 112.289 21.4193L112.348 21.4485V20.8884H110.574V19.4297H111.91C111.98 19.4268 112.036 19.4238 112.109 19.4501C112.182 19.4763 112.225 19.5026 112.278 19.5551L112.348 19.6251V19.0067H109.775L109.848 19.0767C109.889 19.1175 109.906 19.1467 109.926 19.1934M72.4006 32.0968C73.4304 32.0764 74.2094 31.3675 74.2094 30.4456V27.5924C74.2094 27.5341 74.2065 27.4961 74.2152 27.4319C74.2245 27.3623 74.2411 27.2939 74.2648 27.2278L74.2823 27.1694H73.5005L73.5238 27.2278C73.5507 27.2935 73.5703 27.3619 73.5821 27.4319C73.5967 27.5136 73.5938 27.5778 73.5938 27.6654V30.3989C73.598 30.5558 73.5698 30.7118 73.5108 30.8573C73.4518 31.0027 73.3633 31.1344 73.251 31.244C73.1386 31.3536 73.0049 31.4387 72.858 31.4941C72.7112 31.5495 72.5544 31.574 72.3977 31.5659C72.0359 31.5804 71.68 31.4433 71.4233 31.1924C71.1812 30.959 71.0499 30.6527 71.0499 30.3318V27.5545C71.0499 27.4962 71.047 27.4495 71.0616 27.3882C71.0732 27.3094 71.0849 27.2657 71.1199 27.2015L71.1491 27.1431H70.376L70.3964 27.2015C70.423 27.2803 70.4425 27.3614 70.4547 27.4437C70.4622 27.4929 70.4642 27.5428 70.4606 27.5924V30.3931C70.4588 30.6023 70.4995 30.8098 70.5802 31.0028C70.661 31.1959 70.7801 31.3706 70.9303 31.5163C71.3235 31.882 71.8433 32.0807 72.3802 32.0706L72.4006 32.0968ZM75.6622 31.9072C75.6476 31.8605 75.633 31.8197 75.6243 31.7672C75.5805 31.5629 75.5805 31.5629 75.5805 31.4258V27.9892L79.4373 32.2485L79.4314 27.677C79.4314 27.5807 79.4314 27.5312 79.4489 27.4291C79.4584 27.3595 79.475 27.291 79.4985 27.2248L79.516 27.1665H78.8684L78.8859 27.2307L78.9267 27.4057C78.9617 27.5866 78.9617 27.7179 78.9559 27.8813V30.924L75.6768 27.181H74.8074L74.9358 27.2569C74.9897 27.2854 75.032 27.3319 75.0554 27.3882C75.0904 27.4465 75.1021 27.499 75.1021 27.572V31.557C75.1021 31.6504 75.1021 31.7117 75.0787 31.8051C75.0671 31.8634 75.0496 31.8984 75.0029 31.9626L74.9562 32.0268H75.6972L75.6797 31.9742L75.6593 31.9159M81.0768 27.4232L81.1497 27.2482L81.1789 27.1898H80.2454L80.2862 27.254C80.3287 27.3167 80.3612 27.3855 80.3825 27.4582C80.4105 27.5337 80.4234 27.6141 80.4204 27.6946V31.5746C80.4204 31.6679 80.4204 31.7262 80.3825 31.8079C80.365 31.8663 80.3475 31.9013 80.3125 31.9539L80.2716 32.018H81.1672L81.1293 31.9539C81.0902 31.9069 81.0614 31.8522 81.0447 31.7934C81.0272 31.6359 81.0272 31.4229 81.0272 31.2099V27.7033C81.0272 27.6362 81.0272 27.5953 81.0681 27.4495M82.5705 27.1986H81.5932L81.7099 27.2744C81.777 27.3153 81.8091 27.3502 81.8499 27.4203C81.8791 27.4582 81.8878 27.4903 81.9082 27.5282L84.1954 32.2018L86.3193 27.6857C86.3474 27.6229 86.3806 27.5625 86.4185 27.5049V27.502C86.4606 27.4206 86.5104 27.3434 86.5672 27.2715L86.6198 27.2044H85.8146L85.8321 27.2569C85.8496 27.3152 85.8554 27.3561 85.8554 27.4145C85.8554 27.4728 85.8321 27.5107 85.8087 27.5603L85.7796 27.6187L84.2042 30.9911L82.5296 27.4903C82.5121 27.4466 82.5005 27.4203 82.5005 27.3795C82.5005 27.3386 82.5034 27.3211 82.5296 27.2861L82.5705 27.1986ZM87.2178 31.9831L87.1711 32.0501H90.0301L90.2402 31.3733L90.1439 31.4375C90.0681 31.4871 90.0185 31.5104 89.9397 31.5337C89.7413 31.5979 89.648 31.6096 89.4233 31.6096H87.9647V29.5587H89.1987C89.2745 29.5587 89.33 29.5587 89.4029 29.5703C89.4927 29.5889 89.5798 29.6183 89.6625 29.6579L89.7209 29.6871V29.127H87.9472V27.6683H89.2016L89.2833 27.6654C89.3533 27.6595 89.4087 27.6595 89.4817 27.6857C89.5546 27.712 89.5984 27.7383 89.6509 27.7908L89.7209 27.8608V27.2424H87.1478L87.2178 27.3123C87.2587 27.3532 87.2762 27.3824 87.2966 27.4291C87.3205 27.4894 87.3324 27.5538 87.3316 27.6187V31.6155L87.3345 31.6825C87.3374 31.7408 87.3374 31.7875 87.3199 31.8459C87.3024 31.9042 87.282 31.9538 87.2441 32.0092M91.5209 27.642C91.6784 27.5749 91.7922 27.5662 91.9818 27.5662C92.717 27.5953 92.8425 27.9804 92.8658 28.3538C92.9008 28.8556 92.5361 29.1853 91.8914 29.2349C91.7669 29.2401 91.6421 29.2372 91.518 29.2261L91.5209 27.642ZM94.3799 32.018L94.1407 31.8284C94.0036 31.7117 93.8956 31.5367 93.7614 31.3908L92.6032 29.9205C92.4865 29.7688 92.4078 29.6871 92.2648 29.5499C92.5478 29.5645 92.8483 29.4683 93.0467 29.2787C93.1794 29.1674 93.287 29.0293 93.3624 28.8734C93.4379 28.7175 93.4794 28.5474 93.4843 28.3743C93.4912 28.2314 93.469 28.0886 93.4188 27.9547C93.3686 27.8208 93.2916 27.6985 93.1925 27.5954C92.9679 27.362 92.6324 27.2307 92.2765 27.2307H90.7711L90.8295 27.3327C90.8587 27.3823 90.8791 27.4203 90.8937 27.4787C90.9217 27.6277 90.9344 27.7792 90.9316 27.9308V31.3529L90.9141 31.8342C90.9083 31.8867 90.8908 31.9217 90.8645 31.9742L90.812 32.0764H91.6405L91.5997 31.9596C91.5792 31.9013 91.5617 31.8576 91.553 31.7905L91.5355 31.5921V29.4245C91.5851 29.4653 91.6026 29.4916 91.6288 29.5266L91.6697 29.5849L93.5951 32.0939H94.4937L94.3799 32.018Z" fill="black"/>
<path d="M95.7338 31.706C95.2962 31.7001 94.9899 31.6768 94.6427 31.3909L94.5756 31.3325V31.951L94.6048 31.9597C94.9607 32.0939 95.2116 32.0969 95.5587 32.1056L95.6842 32.1086H95.7659C96.186 32.1086 96.8745 32.0386 97.2741 31.6301C97.493 31.4084 97.5659 31.1167 97.5834 30.7637C97.5542 30.011 97.1545 29.7893 96.6498 29.5034L96.4748 29.407L95.7163 28.9695C95.4041 28.7944 95.2057 28.6194 95.1737 28.3072C95.1591 28.1235 95.2232 27.9513 95.3633 27.8113C95.5442 27.6245 95.8359 27.5108 96.1218 27.5108L96.1801 27.5137C96.5419 27.5254 96.8015 27.5808 97.0553 27.8288L97.1254 27.8959V27.2832L97.0962 27.2716C96.8314 27.1692 96.5485 27.1215 96.2647 27.1315L96.1247 27.1287C96.1043 27.1287 96.081 27.1287 96.0605 27.1287C95.5938 27.1287 95.1562 27.2891 94.8732 27.5604C94.6544 27.7733 94.5406 28.0447 94.5435 28.3481C94.5493 28.8295 94.7769 29.1649 95.3108 29.4858L96.1801 29.9818C96.5594 30.1948 96.892 30.4194 96.892 30.857C96.892 31.0991 96.8161 31.2946 96.6586 31.4405C96.4544 31.636 96.1335 31.7322 95.7192 31.7176" fill="black"/>
<path d="M98.9073 27.2453L98.9365 27.187H98.0088L98.0496 27.2511C98.0963 27.3212 98.1197 27.3737 98.1459 27.4554C98.1722 27.5371 98.1838 27.6012 98.1838 27.6887V31.5688C98.1838 31.6622 98.1838 31.7205 98.1459 31.8022C98.1284 31.8605 98.1109 31.8897 98.0759 31.948L98.035 32.0122H98.9307L98.8927 31.948C98.8344 31.8605 98.8169 31.8313 98.8052 31.7847C98.7877 31.6271 98.7877 31.4142 98.7877 31.172V27.6712C98.7877 27.6012 98.7877 27.5633 98.8286 27.4145L98.7906 27.4028L98.8315 27.4116L98.9044 27.2365" fill="black"/>
<path d="M99.8442 27.6245H101.002V31.6505C101.005 31.7088 101.008 31.7555 100.997 31.8138C100.985 31.8722 100.967 31.9072 100.938 31.9597L100.903 32.0181H101.787L101.749 31.9539C101.711 31.8897 101.691 31.8517 101.685 31.7963C101.656 31.6504 101.656 31.6388 101.656 31.5863V27.5983H102.656C102.756 27.5983 102.823 27.61 102.925 27.6421C102.997 27.6573 103.069 27.6818 103.135 27.715L103.202 27.7442L103.15 27.2045L103.147 27.1666H99.4941L99.3657 27.785L99.4474 27.7354C99.52 27.6871 99.6012 27.6534 99.6866 27.6362C99.745 27.6187 99.7829 27.6129 99.8412 27.6129M107.059 27.6245L107.199 27.4203C107.245 27.3561 107.286 27.3124 107.353 27.2453L107.432 27.1723H106.627L106.633 27.219C106.639 27.2598 106.639 27.2891 106.633 27.327C106.627 27.3649 106.604 27.4145 106.569 27.4612L105.518 29.1241L104.556 27.5662L104.541 27.5457C104.503 27.4874 104.477 27.4465 104.454 27.3824C104.43 27.3182 104.436 27.2891 104.442 27.2307V27.184H103.508L103.602 27.2569C103.654 27.3007 103.689 27.3328 103.724 27.3736L103.736 27.3882L103.853 27.5633L105.142 29.5908V31.7205C105.145 31.7876 105.145 31.808 105.136 31.843C105.127 31.8781 105.122 31.9189 105.095 31.9772L105.066 32.0355H105.807L105.79 31.9772L105.761 31.8693L105.755 31.8401C105.743 31.7818 105.737 31.7409 105.737 31.6884V29.5879L107.059 27.6245ZM112.301 27.5487C113.346 27.5662 114.139 28.4239 114.157 29.5383C114.157 29.8162 114.101 30.0913 113.994 30.3477C113.887 30.6041 113.73 30.8367 113.532 31.032C113.201 31.3637 112.752 31.5514 112.284 31.5542C111.21 31.5309 110.417 30.6382 110.434 29.5267C110.452 28.5639 111.105 27.5516 112.278 27.5516L112.301 27.5487ZM112.272 27.0732C111.636 27.0732 111.032 27.3211 110.565 27.7733C110.099 28.2255 109.807 28.8877 109.807 29.5237C109.807 30.1714 110.06 30.7935 110.512 31.2569C110.965 31.7203 111.581 31.9882 112.228 32.0035H112.287C112.943 32.0034 113.574 31.7457 114.043 31.2858C114.276 31.0533 114.458 30.7759 114.58 30.4705C114.702 30.165 114.76 29.8379 114.752 29.5091C114.747 28.866 114.492 28.25 114.041 27.7911C113.591 27.3322 112.979 27.0665 112.336 27.0498H112.266" fill="black"/>
<path d="M116.105 29.0948V27.6128H117.424C117.512 27.6157 117.579 27.6128 117.657 27.6303C117.736 27.6479 117.76 27.6799 117.815 27.7237L117.891 27.7821V27.1782H115.361L115.408 27.2424C115.437 27.2861 115.466 27.3211 115.481 27.3736C115.496 27.4261 115.516 27.4903 115.516 27.5574V31.5542L115.519 31.6358C115.522 31.6942 115.522 31.738 115.513 31.7934C115.497 31.8548 115.472 31.9137 115.44 31.9684L115.405 32.0268H116.222L116.21 31.9772C116.205 31.948 116.196 31.9305 116.187 31.91C116.178 31.8896 116.17 31.8721 116.167 31.8401L116.129 31.2566V29.5558H117.634C117.686 29.5566 117.738 29.5644 117.789 29.5791L117.894 29.6025V29.1211L116.105 29.0948ZM71.7763 35.3905L71.6479 36.0089L71.7296 35.9593C71.8113 35.9097 71.8755 35.8806 71.9689 35.8601C72.0187 35.8437 72.071 35.8358 72.1235 35.8368H73.2846V39.7752V39.8628C73.2875 39.9211 73.2875 39.9678 73.2787 40.0261C73.27 40.0845 73.2496 40.1136 73.2204 40.172L73.1854 40.2304H74.0693L74.0314 40.1662C73.9964 40.1078 73.9731 40.0669 73.9672 40.0086C73.9381 39.8627 73.9381 39.854 73.9439 39.8044V35.8164H74.9445C75.0467 35.8164 75.1108 35.828 75.2129 35.8572C75.285 35.8721 75.3575 35.8967 75.423 35.9302L75.4901 35.9652L75.4317 35.3817L71.7763 35.3905ZM78.9355 39.7198C78.7695 39.7765 78.5944 39.8022 78.4191 39.7956H76.9604V37.7447H78.1945C78.2618 37.7423 78.3292 37.7462 78.3958 37.7564C78.4856 37.7747 78.5728 37.8041 78.6554 37.8439L78.7138 37.8731V37.313H76.9633V35.8543H78.2178L78.2995 35.8514C78.3695 35.8485 78.4249 35.8455 78.4979 35.8718C78.5708 35.898 78.6146 35.9243 78.6671 35.9768L78.7371 36.0468V35.4284H76.164L76.234 35.4984C76.2749 35.5392 76.2924 35.5684 76.3128 35.6151C76.3361 35.6822 76.3478 35.7318 76.3478 35.8048V39.8015V39.8685C76.353 39.9244 76.348 39.9807 76.3332 40.0349C76.3157 40.0932 76.2953 40.1428 76.2574 40.1982L76.2107 40.2624H79.0697L79.2797 39.5856L79.1835 39.6498C79.1213 39.6956 79.051 39.7293 78.9763 39.749" fill="black"/>
<path d="M82.1124 39.8541C81.4764 39.8658 80.9075 39.6586 80.5078 39.2589C80.322 39.074 80.1765 38.8524 80.0806 38.6084C79.9847 38.3644 79.9404 38.1031 79.9506 37.8411C79.9564 37.2577 80.1782 36.7325 80.5691 36.3533C80.96 35.974 81.4676 35.7844 82.0365 35.7844C82.4372 35.7701 82.8335 35.8725 83.1772 36.079L83.2355 36.114V35.5481L83.2064 35.5364C82.846 35.3842 82.4565 35.3134 82.0657 35.3292H82.0365C81.6681 35.321 81.3017 35.3856 80.9582 35.5193C80.6148 35.653 80.3012 35.8531 80.0352 36.1082C79.8085 36.3358 79.6293 36.6062 79.5081 36.9037C79.3869 37.2012 79.3261 37.5199 79.3292 37.8411C79.3321 38.5267 79.5976 39.1539 80.0761 39.609C80.5545 40.0641 81.2313 40.3237 81.9723 40.3237H82.1182L82.1882 40.3209C82.5966 40.3092 82.8738 40.3004 83.2793 40.1516L83.2968 40.1458L83.6119 39.3698L83.4952 39.4486C83.0856 39.7249 82.6005 39.8675 82.1065 39.857" fill="black"/>
<path d="M87.8979 39.9853C87.8804 39.9065 87.8746 39.8511 87.8746 39.7811V35.9885C87.8717 35.8806 87.8716 35.7931 87.9037 35.6793C87.9194 35.613 87.9419 35.5485 87.9708 35.4868L88 35.4285H87.1248L87.189 35.4984C87.2437 35.5553 87.282 35.6259 87.2999 35.7027C87.3232 35.7698 87.3203 35.8193 87.3174 35.8894V37.3277H84.8084V35.9682C84.8084 35.8427 84.8055 35.7639 84.8434 35.6764L84.8522 35.6531C84.8726 35.6035 84.8814 35.5656 84.9164 35.516L84.9543 35.4576H84.0791L84.1287 35.5247C84.1783 35.5918 84.2016 35.6326 84.2308 35.6997C84.2541 35.7873 84.2541 35.8456 84.2541 35.9331V39.9211C84.2541 39.994 84.2541 40.0466 84.2337 40.1107C84.212 40.1552 84.1856 40.1973 84.1549 40.2362L84.1054 40.3033H85.001L84.9339 40.2041C84.9047 40.1662 84.8872 40.137 84.8755 40.0991C84.8376 39.9386 84.8405 39.8803 84.8464 39.8073L84.8493 39.7024V37.8178H87.3524V40.0641C87.341 40.1332 87.3107 40.1978 87.2648 40.2508L87.2065 40.3179H88.0729L88.0438 40.2595C88.0108 40.2031 87.9862 40.1422 87.9708 40.0787M92.7174 35.4926L92.7553 35.6501C92.7838 35.806 92.7945 35.9645 92.7874 36.1227V39.1655L89.4791 35.3905H88.6097L88.7381 35.4664C88.7964 35.5014 88.8256 35.5363 88.8548 35.5976C88.884 35.6589 88.9015 35.7085 88.9015 35.7815V39.7636C88.9015 39.8599 88.9015 39.9182 88.8781 40.0116C88.8665 40.0757 88.8431 40.1079 88.8023 40.1662L88.7556 40.2332H89.4995L89.4645 40.1224C89.447 40.0728 89.4353 40.0349 89.4266 39.9766C89.3828 39.7724 89.3828 39.7723 89.3828 39.6352V36.1986L93.2396 40.458L93.2337 35.8894C93.2337 35.7931 93.2337 35.7435 93.2512 35.6414C93.2629 35.5656 93.2746 35.5159 93.3008 35.4372L93.3183 35.3789H92.6707L92.7174 35.4926ZM96.472 35.7902C97.5164 35.8077 98.3099 36.6654 98.3274 37.7798C98.3277 38.0582 98.2727 38.3339 98.1655 38.5908C98.0583 38.8477 97.9011 39.0808 97.7031 39.2764C97.3722 39.6064 96.9247 39.7928 96.4574 39.7957C95.3838 39.7723 94.5903 38.8826 94.6078 37.7682C94.6253 36.8054 95.2788 35.7931 96.4516 35.7931L96.472 35.7902ZM96.5128 35.3175C96.1851 35.309 95.859 35.3664 95.5538 35.4861C95.2486 35.6059 94.9706 35.7857 94.7362 36.0148C94.2548 36.4816 93.9777 37.1293 93.9777 37.7652C93.9775 38.4129 94.2307 39.035 94.6832 39.4984C95.1357 39.9618 95.7516 40.2298 96.3991 40.245H96.4574C97.1167 40.245 97.7527 39.9532 98.2136 39.5302C98.4466 39.2974 98.6297 39.0195 98.7516 38.7135C98.8735 38.4075 98.9316 38.0799 98.9226 37.7506C98.9175 37.1075 98.6627 36.4915 98.212 36.0326C97.7613 35.5738 97.15 35.3079 96.507 35.2913M102.479 39.7198C102.377 39.7599 102.268 39.7798 102.158 39.7782L100.361 39.784L100.355 35.8981C100.352 35.7872 100.352 35.7085 100.384 35.6006C100.4 35.5407 100.422 35.483 100.451 35.4285L100.48 35.3701H99.5906L99.6373 35.4372C99.6869 35.5072 99.7102 35.5626 99.7336 35.6326C99.7569 35.7201 99.7628 35.7727 99.7628 35.866V39.8103C99.7628 39.889 99.7627 39.9416 99.7336 40.0145C99.7161 40.0583 99.6957 40.0933 99.6636 40.1399L99.6169 40.2071H102.49L102.706 39.6294L102.639 39.5827C102.523 39.6848 102.517 39.6848 102.485 39.6935" fill="black"/>
<path d="M105.165 35.7581C106.21 35.7756 107.003 36.6333 107.021 37.7478C107.021 38.0261 106.966 38.3018 106.859 38.5587C106.752 38.8157 106.594 39.0487 106.396 39.2444C106.065 39.5743 105.618 39.7608 105.151 39.7637C104.071 39.7403 103.284 38.8505 103.298 37.7361C103.316 36.7734 103.969 35.761 105.142 35.761L105.165 35.7581ZM105.206 35.2855H105.136C104.5 35.2855 103.896 35.5335 103.429 35.9857C102.948 36.4524 102.671 37.1001 102.671 37.7361C102.671 38.3838 102.924 39.0058 103.376 39.4692C103.829 39.9326 104.445 40.2006 105.092 40.2159H105.151C105.807 40.2157 106.438 39.9581 106.907 39.4982C107.14 39.2657 107.322 38.9883 107.444 38.6828C107.566 38.3774 107.624 38.0503 107.616 37.7215C107.611 37.0783 107.356 36.4623 106.905 36.0035C106.455 35.5446 105.843 35.2788 105.2 35.2622M111.881 37.8295C111.948 37.9024 111.989 37.9461 112.018 38.0453C112.071 38.2057 112.068 38.3371 112.068 38.5034V39.4806C111.694 39.6936 111.403 39.7724 111.029 39.7637C110.752 39.781 110.474 39.7433 110.212 39.6526C109.949 39.562 109.708 39.4203 109.5 39.2356C109.107 38.871 108.882 38.3604 108.859 37.7916C108.848 37.5233 108.891 37.2556 108.984 37.0038C109.077 36.752 109.219 36.521 109.401 36.3241C109.751 35.9623 110.23 35.7406 110.796 35.7581C111.195 35.7581 111.662 35.7961 112.109 36.0645L112.173 36.1024V35.5102L112.144 35.4985C111.683 35.3235 111.365 35.3059 110.889 35.2943H110.86C109.325 35.2943 108.281 36.2949 108.258 37.7944C108.249 38.4479 108.503 39.0606 108.975 39.5215C109.471 40.0029 110.142 40.2654 110.872 40.2654H111.003C111.697 40.2363 112.307 39.9883 112.613 39.787L112.634 39.7753L112.628 38.1241C112.628 38.0657 112.625 38.0308 112.645 37.9783V37.9753C112.663 37.917 112.683 37.882 112.727 37.8236L112.78 37.7565H111.811L111.881 37.8295Z" fill="black"/>
<path d="M115.933 35.4285C115.939 35.4693 115.939 35.4984 115.933 35.5334C115.927 35.5684 115.904 35.6152 115.869 35.6677L114.819 37.3305L113.856 35.7727L113.841 35.7523C113.803 35.6939 113.777 35.6531 113.754 35.5889C113.73 35.5247 113.736 35.4926 113.742 35.4343V35.3876H112.809L112.902 35.4605C112.96 35.5072 112.989 35.5393 113.03 35.586L113.036 35.5918L113.153 35.7669L114.442 37.7944V39.9241C114.445 39.9941 114.445 40.0116 114.436 40.0466C114.428 40.0816 114.422 40.1225 114.396 40.1808L114.366 40.2391H115.107L115.09 40.1808C115.075 40.1371 115.07 40.1078 115.061 40.0728L115.052 40.0437C115.04 39.9795 115.035 39.9445 115.035 39.892V37.7915L116.482 35.621C116.527 35.5581 116.578 35.5004 116.636 35.4489L116.715 35.3759H115.91L115.933 35.4285Z" fill="black"/>
<path d="M0.5 0.749878H63.0012V63.2511H0.5V0.749878Z" fill="black"/>
<path d="M10.6698 21.7286C9.27528 21.7082 8.39424 21.749 7.08727 21.256V19.5639C8.26879 20.5266 9.31904 20.6375 10.8419 20.6579C13.3741 20.7454 14.9203 19.6076 14.9203 17.6122C14.9203 16.0893 13.7534 15.2929 12.4523 14.5431L9.53492 12.8686C7.96831 11.9468 7.04643 10.8936 7.026 9.17816C7.00558 6.6459 9.49408 5.14346 12.1985 5.22806C13.4646 5.27182 14.2581 5.22812 15.4163 5.70073V7.35188C14.5411 6.49418 13.6134 6.30164 12.3677 6.25788C10.6085 6.14994 8.67722 7.33146 8.82601 9.08771C8.93395 10.2546 9.70704 10.8469 10.7135 11.4274L13.2662 12.9094C15.1975 14.0238 16.8079 14.6248 16.9129 17.3526C17.0413 20.8942 13.5638 21.7957 10.6698 21.7286ZM36.6341 6.99603C36.5116 7.22066 36.4095 7.36356 36.3307 7.57944L31.2691 21.6907L27.2636 10.9548L23.3398 21.7724L17.9719 7.31689C17.9225 7.10746 17.8246 6.91256 17.686 6.74799C17.539 6.54926 17.3522 6.38336 17.1375 6.26082H19.9236C19.8215 6.42419 19.7602 6.55259 19.7398 6.70721C19.699 6.87058 19.6814 6.99307 19.7398 7.15352L23.4623 17.726L26.6539 9.22775L25.9012 7.31689C25.7991 7.02516 25.6562 6.93182 25.4928 6.7276C25.3608 6.56316 25.2186 6.40725 25.0669 6.26082H27.8325C27.7578 6.37962 27.7027 6.5096 27.6691 6.64587C27.6191 6.8896 27.6393 7.14254 27.7275 7.37521L31.4675 17.761L34.9246 7.49193C35.0471 7.20019 35.1288 7.04561 35.1084 6.78013C35.088 6.55549 35.05 6.41541 34.9246 6.23161H37.1622C36.9663 6.459 36.7906 6.70304 36.6371 6.96095M38.9301 10.666H37.0747L37.1272 10.7477C37.2259 10.8923 37.3008 11.0519 37.3489 11.2203C37.4122 11.394 37.4419 11.5782 37.4364 11.763V20.4566C37.4364 20.6667 37.4364 20.8067 37.3547 20.9963V21.0022C37.3139 21.1364 37.276 21.2151 37.1884 21.3464L37.1359 21.4281H38.9972L38.9505 21.3493L38.8863 21.2472C38.828 21.1597 38.7755 21.0839 38.758 20.9672C38.7171 20.6171 38.7171 20.1386 38.7171 19.5872V11.7338C38.7171 11.5762 38.7171 11.4828 38.8163 11.1503L38.9855 10.7419L39.0235 10.669L38.9301 10.666ZM55.2672 6.90263C55.2089 7.19437 55.2089 7.41025 55.2089 7.71949L55.2293 21.9328L42.9765 8.37297V19.6573C42.9659 20.0351 43.0152 20.4122 43.1223 20.7746C43.1632 21.0197 43.2244 21.1597 43.3032 21.4252H41.3719C41.5178 21.221 41.5965 21.1335 41.6636 20.8767C41.7453 20.5733 41.7453 20.3691 41.7453 20.0599V7.36942C41.7453 7.12436 41.7045 6.94351 41.582 6.71888C41.4965 6.51979 41.3465 6.35533 41.156 6.25209H43.3936L54.0274 18.3883V8.75224C54.0274 8.0229 54.0682 7.58534 53.9253 6.82099C53.8844 6.59636 53.8436 6.45333 53.7794 6.23161H55.486C55.4043 6.47667 55.3635 6.64007 55.3227 6.90263M17.1288 31.6359C16.6212 31.6359 16.3119 31.6359 15.8072 31.7584V38.2641C16.2844 38.4265 16.7898 38.489 17.2921 38.4479C19.2847 38.3253 21.2364 37.208 21.1722 35.0113C21.1139 32.409 19.1417 31.6971 17.1288 31.6359ZM17.2075 25.2178H15.7489V30.6878H17.0704C19.2876 30.6878 20.3028 29.5208 20.2416 27.8404C20.1599 26.3176 19.1242 25.2148 17.2367 25.2148M17.8056 39.3844H13.7009C13.8234 39.221 13.8643 39.0926 13.9459 38.9584C14.0481 38.6755 14.0918 38.4712 14.0918 38.1649V25.6611C14.0948 25.3507 14.0248 25.044 13.8876 24.7656C13.7999 24.5651 13.6914 24.3744 13.5638 24.1967H18.1498C20.122 24.1967 21.6507 25.8653 21.7498 27.8346C21.7907 29.2786 21.2014 30.0518 20.1045 30.6819L19.5356 31.032L20.1191 31.2566C21.8111 31.8255 22.7447 33.0654 22.7447 35.0579C22.7242 37.7419 20.8134 39.3873 17.721 39.3873M36.9375 24.8735C36.8967 25.1594 36.9171 25.3198 36.9171 25.6028V34.489C36.9171 37.418 34.417 39.5507 31.2867 39.6119C27.9317 39.6528 25.2069 37.4969 25.2069 34.4074V25.6554C25.2069 25.3636 25.2273 25.2294 25.1865 24.9639C25.1604 24.6928 25.0996 24.4261 25.0056 24.1704H27.0477C26.9534 24.3694 26.8913 24.5821 26.864 24.8006C26.8056 25.0923 26.8231 25.2469 26.8231 25.5124V34.1944C26.8231 36.5341 28.9178 38.3428 31.2575 38.2612C33.5738 38.2028 35.2017 36.4729 35.2017 34.3169V25.6174C35.2017 25.314 35.2017 25.1302 35.1609 24.8443C35.1147 24.6145 35.0463 24.3899 34.9567 24.1734H37.0717C36.9901 24.4184 36.9492 24.5817 36.9084 24.8443M43.735 25.0689C43.1048 25.0689 42.7139 25.0894 42.1304 25.3549V30.6003C42.5693 30.6465 43.0111 30.6601 43.452 30.6411C45.5466 30.4777 46.8069 29.3808 46.6844 27.7237C46.6027 26.5043 46.1972 25.2031 43.7671 25.0981M48.9103 39.4106L42.7839 31.4812C42.6205 31.277 42.5593 31.1312 42.3755 30.9941C42.2938 30.9124 42.2121 30.8716 42.0837 30.8103V37.8119C42.0837 38.1387 42.0633 38.3196 42.1421 38.6463C42.1829 38.9293 42.2646 39.0927 42.3667 39.3756H40.1291C40.2517 39.1306 40.3538 38.9876 40.3742 38.7455C40.4325 38.4421 40.4325 37.7711 40.4325 37.1993V26.3001C40.4425 25.809 40.4015 25.3182 40.31 24.8356C40.2517 24.5438 40.1466 24.4271 40.0241 24.2054H44.5985C46.591 24.2054 48.3794 25.527 48.3181 27.7063C48.2773 29.8213 46.4277 31.6301 44.1901 31.2858C44.3126 31.3879 44.3709 31.4696 44.4964 31.5717C44.9223 31.9801 45.1674 32.2427 45.5525 32.7299L49.17 37.3247C49.6368 37.9082 50.0043 38.4216 50.4711 38.8301L51.2442 39.4136L48.9103 39.4106ZM33.005 42.7189C32.9466 43.0106 32.9466 43.2265 32.9466 43.5358L32.967 57.7491L20.7142 44.1834V55.4677C20.7037 55.8455 20.7529 56.2226 20.8601 56.585C20.9009 56.8301 20.9622 56.973 21.0438 57.2356H19.1709C19.3168 57.0314 19.3956 56.9439 19.4626 56.6871C19.5443 56.3837 19.5443 56.1795 19.5443 55.8703V43.1798C19.5443 42.9348 19.5035 42.7539 19.381 42.5293C19.2955 42.3302 19.1455 42.1657 18.955 42.0625H21.1926L31.8264 54.1987V44.5626C31.8264 43.8333 31.8672 43.3957 31.7243 42.6314C31.6834 42.4068 31.6426 42.2638 31.5784 42.0421H33.288C33.2063 42.2872 33.1654 42.4505 33.1246 42.713M45.2899 57.2356H36.4999C36.6254 57.0658 36.7147 56.8723 36.7625 56.6668C36.8442 56.3809 36.8034 56.1766 36.8034 55.8936V43.1652C36.8057 42.9424 36.7641 42.7213 36.6808 42.5147C36.5991 42.3309 36.535 42.2317 36.3949 42.0888H44.1405V43.6146C43.9596 43.4308 43.7962 43.3286 43.5512 43.2469C43.2011 43.1244 42.9619 43.1885 42.6176 43.1885H38.4896V48.1919H44.1405V49.6359C43.8371 49.4901 43.6329 49.4317 43.2857 49.35C43.0436 49.3091 42.8598 49.3092 42.6147 49.3092H38.5479V56.1008H43.4082C44.0792 56.1008 44.4643 56.0599 45.1003 55.8557C45.3482 55.7897 45.5823 55.68 45.7917 55.5319L45.2899 57.2356ZM9.4649 46.8966C9.47366 46.8966 9.56409 46.8674 9.5816 46.879C9.6776 46.9349 9.77388 46.9904 9.87042 47.0453C9.97548 47.0504 10.0805 47.0562 10.1855 47.0628L10.3751 47.0833C10.5054 47.1547 10.6319 47.2325 10.7544 47.3166C10.8129 47.407 10.8646 47.5016 10.909 47.5996C10.9557 47.7047 10.9265 47.8709 10.9323 47.973C10.9264 48.0319 10.9167 48.0904 10.9032 48.1481C10.8944 48.1831 10.874 48.3815 10.874 48.3815C10.8827 48.4836 11.0199 48.6265 11.0957 48.6382C11.2007 48.6557 11.4108 48.5099 11.4079 48.4048C11.4049 48.3669 11.3874 48.3756 11.3787 48.3377C11.367 48.256 11.1453 47.9701 11.3612 47.5062C11.4691 47.2729 11.7404 47.1416 11.9563 47.1153C12.0643 47.1007 12.2014 47.127 12.3152 47.1037C12.4289 47.0803 12.5106 47.0161 12.6186 46.9782C12.6416 47.0057 12.667 47.031 12.6944 47.0541C12.709 47.0949 12.6769 47.1883 12.6652 47.2291C12.6127 47.3866 12.7352 47.7484 12.7469 47.8126C12.7516 47.9945 12.7147 48.1751 12.639 48.3406C12.5894 48.4194 12.5077 48.5244 12.391 48.574C12.1868 48.6673 11.6792 48.5594 11.6033 48.9066C11.5975 48.9358 11.5741 49.0116 11.5917 49.0437C11.6431 49.0967 11.7021 49.1419 11.7667 49.1779C11.9797 49.1575 12.0584 49.0496 12.2568 48.9445C12.3931 48.8819 12.5374 48.8387 12.6857 48.8161L12.7061 48.8454C12.7352 48.8629 12.8023 48.8366 12.8344 48.8424C12.9086 48.8593 12.9817 48.8808 13.0532 48.9066C13.1816 48.9941 13.2925 49.2566 13.3391 49.3792C13.3771 49.4784 13.5142 49.7293 13.4675 49.811C13.4092 49.9189 13.2137 50.0035 13.1233 50.0939C13.0591 50.1523 12.9686 50.269 12.8519 50.3273C12.7776 50.3502 12.7015 50.3668 12.6244 50.3769C12.4318 50.4061 12.0584 50.2369 11.9155 49.9831C11.8513 49.8664 11.8775 49.7264 11.7638 49.6126C11.6821 49.5309 11.472 49.4843 11.3262 49.6126C11.3087 49.6301 11.262 49.7818 11.2678 49.8051C11.2737 49.8284 11.3028 49.8518 11.3028 49.8926C11.3028 49.8984 11.2737 49.9452 11.2795 49.951C11.3291 50.0677 11.5304 50.1202 11.615 50.2427C11.6821 50.3214 11.7083 50.4177 11.7375 50.4819C11.7784 50.5694 11.825 50.7824 11.825 50.7912C11.8192 50.8641 11.828 51.0042 11.8017 51.0683C11.7185 51.2345 11.586 51.371 11.4224 51.4593C11.262 51.5468 11.2036 51.7014 11.0724 51.7276C10.9411 51.7539 10.7981 51.5322 10.6814 51.4155C10.6523 51.3863 10.5647 51.328 10.5356 51.2988C10.3605 51.1092 10.3489 50.9137 10.3518 50.7562C10.3518 50.6979 10.3372 50.6308 10.3576 50.5812C10.4123 50.4719 10.4778 50.3682 10.5531 50.2719C10.6493 50.1727 10.7777 50.1348 10.8244 50.0385C10.8419 50.0035 10.8594 49.8868 10.8448 49.8489C10.8156 49.7906 10.6814 49.6738 10.6698 49.6651C10.5677 49.6067 10.3255 49.8897 10.3197 49.9102C10.2447 50.0442 10.1619 50.1738 10.0717 50.2981C9.99003 50.3682 9.85291 50.4323 9.76539 50.444C9.67359 50.4613 9.58113 50.4749 9.48824 50.4848C9.31698 50.4579 9.15757 50.3808 9.03022 50.2632C8.9427 50.164 8.72973 50.0181 8.72973 50.0181C8.65097 49.9305 8.62179 49.9131 8.64805 49.8372C8.6743 49.7614 8.75599 49.703 8.80267 49.6213C8.86101 49.5134 8.89019 49.3296 8.97771 49.2187C8.99813 49.1896 9.04189 49.1809 9.06523 49.1604C9.11482 49.1167 9.21985 48.9999 9.27819 48.9679C9.38905 48.9095 9.63995 48.9095 9.74497 48.9474C9.79748 48.9707 10.0367 49.0641 10.0367 49.0933C10.0367 49.1225 10.0863 49.1808 10.1184 49.21C10.1505 49.2392 10.1942 49.2596 10.2351 49.2829L10.2643 49.2625C10.3518 49.277 10.4597 49.2771 10.5327 49.1838C10.556 49.1546 10.591 49.0612 10.5735 49.0262C10.4445 48.9237 10.3079 48.8311 10.1651 48.749C10.1359 48.7432 10.0688 48.7636 10.0367 48.752C9.96961 48.7315 9.94335 48.6848 9.87625 48.6469C9.84708 48.6294 9.76539 48.6178 9.73038 48.5945C9.53492 48.4603 9.35113 48.1744 9.35113 47.9526C9.34821 47.7864 9.43865 47.6142 9.47949 47.4567C9.52033 47.2991 9.42114 47.2232 9.41531 47.089C9.41239 47.0511 9.45032 47.0074 9.46199 46.9724M54.0974 46.9549C54.0886 46.9549 53.9982 46.9257 53.9807 46.9373L53.6889 47.1037C53.5839 47.1089 53.4789 47.1147 53.3739 47.1212C53.3105 47.126 53.2472 47.1328 53.1842 47.1416C53.0545 47.2138 52.928 47.2917 52.805 47.375C52.7462 47.4652 52.6945 47.5598 52.6504 47.658C52.6037 47.763 52.6358 47.9292 52.627 48.0313C52.633 48.0903 52.6427 48.1487 52.6562 48.2064C52.6725 48.2842 52.6822 48.3633 52.6854 48.4428C52.6795 48.5419 52.5395 48.6878 52.4637 48.6994C52.3586 48.714 52.1486 48.5711 52.1515 48.4602C52.1544 48.4223 52.1719 48.4311 52.1807 48.3932C52.1924 48.3115 52.4141 48.0256 52.1982 47.5617C52.0902 47.3283 51.8189 47.197 51.603 47.1708C51.4951 47.1562 51.3609 47.1825 51.2442 47.1591C51.1275 47.1358 51.0488 47.0716 50.9408 47.0337C50.9408 47.0337 50.8737 47.092 50.865 47.1095C50.8475 47.1504 50.8825 47.2437 50.8941 47.2846C50.9437 47.4421 50.8241 47.8096 50.8124 47.868C50.8061 48.0491 50.8431 48.2292 50.9204 48.3932C50.9785 48.4924 51.0635 48.5733 51.1654 48.6265C51.3697 48.7199 51.8773 48.612 51.9531 48.9591C51.959 48.9883 51.9823 49.0641 51.9648 49.0962C51.9473 49.1283 51.8043 49.2304 51.7839 49.2304C51.5739 49.2071 51.4922 49.1021 51.2967 48.9971C51.215 48.9533 50.9525 48.8716 50.865 48.8716L50.8445 48.9007C50.8154 48.9182 50.7483 48.892 50.7162 48.8978C50.642 48.9148 50.569 48.9363 50.4974 48.962C50.369 49.0495 50.2582 49.3121 50.2115 49.4346C50.1735 49.5338 50.0364 49.7788 50.086 49.8663C50.1444 49.9743 50.3398 50.0589 50.4303 50.1494C50.4945 50.2077 50.5849 50.3244 50.7016 50.3827C50.7424 50.4031 50.8854 50.4265 50.9262 50.4323C51.1188 50.4615 51.4922 50.2923 51.6351 50.0385C51.6993 49.9277 51.6731 49.7818 51.7868 49.668C51.8685 49.5863 52.0786 49.5396 52.2244 49.668C52.2539 49.7287 52.2736 49.7937 52.2828 49.8606C52.277 49.8839 52.2478 49.9072 52.2478 49.9481C52.2478 49.9539 52.277 50.0006 52.2711 50.0064C52.2215 50.1231 52.0202 50.1756 51.9356 50.2981C51.8685 50.3769 51.8423 50.4732 51.8131 50.5374C51.7751 50.6368 51.7458 50.7393 51.7256 50.8437C51.7314 50.9167 51.7227 51.0567 51.7489 51.1209C51.8322 51.2871 51.9646 51.4236 52.1282 51.5118C52.2886 51.5993 52.347 51.7539 52.4782 51.7801C52.6095 51.8064 52.7525 51.5847 52.8692 51.468C52.8983 51.4388 52.9859 51.3805 53.015 51.3513C53.0807 51.2779 53.1309 51.1921 53.1624 51.0988C53.194 51.0055 53.2064 50.9068 53.1988 50.8086C53.1988 50.7503 53.2134 50.6832 53.193 50.6336C53.1383 50.5243 53.0728 50.4207 52.9975 50.3244C52.9013 50.2252 52.7729 50.1873 52.7262 50.0911C52.7087 50.0561 52.6912 49.9393 52.7058 49.9043C52.7291 49.8459 52.8692 49.7293 52.8808 49.7205C52.983 49.6622 53.2251 49.9452 53.2309 49.9656C53.3052 50.101 53.388 50.2315 53.4789 50.3565C53.5606 50.4265 53.6977 50.4907 53.7852 50.5024L54.0594 50.5432C54.2307 50.5163 54.3901 50.4391 54.5175 50.3215C54.605 50.2223 54.818 50.0765 54.818 50.0765C54.8967 49.9889 54.9259 49.9714 54.9055 49.8956C54.8851 49.8197 54.7975 49.7614 54.7509 49.6826C54.6925 49.5746 54.6633 49.3909 54.5758 49.28C54.5554 49.2508 54.5175 49.2421 54.4883 49.2217C54.4387 49.1779 54.3337 49.0612 54.2753 49.0291C54.1271 48.972 53.9642 48.9648 53.8115 49.0087C53.7109 49.0503 53.6126 49.0969 53.5168 49.1487C53.4818 49.1779 53.4672 49.2362 53.4351 49.2654C53.403 49.2946 53.3593 49.315 53.3184 49.3383L53.2893 49.3179C53.2017 49.3325 53.0938 49.3325 53.0209 49.2391C52.9975 49.21 52.9625 49.1166 52.98 49.0816C53.11 48.9791 53.2475 48.8864 53.3914 48.8045C53.4205 48.7957 53.4877 48.8162 53.5197 48.8074C53.5868 48.787 53.6131 48.7403 53.6802 48.7024C53.7094 48.6849 53.7911 48.6732 53.8261 48.6498C54.0215 48.5156 54.2053 48.2297 54.2053 48.008C54.2082 47.8417 54.1178 47.6697 54.0799 47.5121C54.0419 47.3546 54.1382 47.2787 54.1382 47.1445C54.1411 47.1066 54.109 47.0628 54.0915 47.0278" fill="white"/>
</svg>
